<?xml version="1.0" encoding="UTF-8"?>
<svg width="260px" height="40px" viewBox="0 0 260 40" version="1.1" xmlns="http://www.w3.org/2000/svg" xmlns:xlink="http://www.w3.org/1999/xlink">
    <!-- Generator: Sketch 53.2 (72643) - https://sketchapp.com -->
    <title>articles-angular</title>
    <desc>Created with Sketch.</desc>
    <g id="Page-1" stroke="none" stroke-width="1" fill="none" fill-rule="evenodd">
        <g id="REACT-JAVASCRIPT-DES" transform="translate(19.500000, -176.000000)" fill="#000000" fill-rule="nonzero">
            <path d="M136.2,10.83 L132,10.83 L132,14.7 L136.2,14.7 L136.2,21 L125.7,21 L125.7,14.7 L121.5,14.7 L121.5,21 L113.1,21 L113.1,0 L132,0 L132,2.1 L136.2,2.1 L136.2,10.83 Z M127.8,9.45 L127.8,5.25 L121.5,5.25 L121.5,9.45 L127.8,9.45 Z M139.2,0 L158.1,0 L158.1,4.2 L149.7,4.2 L149.7,8.4 L153.9,8.4 L153.9,12.6 L149.7,12.6 L149.7,16.8 L158.1,16.8 L158.1,21 L139.2,21 L139.2,0 Z M180,0 L180,2.1 L184.2,2.1 L184.2,21 L175.8,21 L175.8,16.8 L169.5,16.8 L169.5,21 L161.1,21 L161.1,2.1 L165.3,2.1 L165.3,0 L180,0 Z M175.8,12.6 L175.8,6.21 L169.5,6.21 L169.5,12.6 L175.8,12.6 Z M208.2,6.3 L197.7,6.3 L197.7,14.7 L208.2,14.7 L208.2,21 L191.4,21 L191.4,18.9 L187.2,18.9 L187.2,2.1 L191.4,2.1 L191.4,0 L208.2,0 L208.2,6.3 Z M211.2,0 L228,0 L228,6.3 L223.8,6.3 L223.8,21 L215.4,21 L215.4,6.3 L211.2,6.3 L211.2,0 Z M9.9,37 L18.3,37 L18.3,55.9 L14.1,55.9 L14.1,58 L5.7,58 L5.7,55.9 L1.5,55.9 L1.5,51.7 L9.9,51.7 L9.9,37 Z M40.2,37 L40.2,39.1 L44.4,39.1 L44.4,58 L36,58 L36,53.8 L29.7,53.8 L29.7,58 L21.3,58 L21.3,39.1 L25.5,39.1 L25.5,37 L40.2,37 Z M36,49.6 L36,43.21 L29.7,43.21 L29.7,49.6 L36,49.6 Z M60,37 L68.4,37 L68.4,49.6 L66.3,49.6 L66.3,53.8 L62.1,53.8 L62.1,58 L53.7,58 L53.7,53.8 L49.5,53.8 L49.5,49.6 L47.4,49.6 L47.4,37 L55.8,37 L55.8,47.5 L60,47.5 L60,37 Z M90.3,37 L90.3,39.1 L94.5,39.1 L94.5,58 L86.1,58 L86.1,53.8 L79.8,53.8 L79.8,58 L71.4,58 L71.4,39.1 L75.6,39.1 L75.6,37 L90.3,37 Z M86.1,49.6 L86.1,43.21 L79.8,43.21 L79.8,49.6 L86.1,49.6 Z M120.6,43.3 L112.2,43.3 L112.2,41.2 L108,41.2 L108,45.4 L116.49,45.4 L116.49,47.62 L120.6,47.62 L120.6,55.9 L118.5,55.9 L118.5,58 L99.6,58 L99.6,55.9 L97.5,55.9 L97.5,51.7 L103.8,51.7 L103.8,53.8 L108,53.8 L108,49.6 L99.6,49.6 L99.6,47.5 L97.5,47.5 L97.5,39.1 L99.6,39.1 L99.6,37 L118.5,37 L118.5,39.1 L120.6,39.1 L120.6,43.3 Z M144.6,43.3 L134.1,43.3 L134.1,51.7 L144.6,51.7 L144.6,58 L127.8,58 L127.8,55.9 L123.6,55.9 L123.6,39.1 L127.8,39.1 L127.8,37 L144.6,37 L144.6,43.3 Z M170.7,47.83 L166.5,47.83 L166.5,51.7 L170.7,51.7 L170.7,58 L160.2,58 L160.2,51.7 L156,51.7 L156,58 L147.6,58 L147.6,37 L166.5,37 L166.5,39.1 L170.7,39.1 L170.7,47.83 Z M162.3,46.45 L162.3,42.25 L156,42.25 L156,46.45 L162.3,46.45 Z M182.1,58 L173.7,58 L173.7,37 L182.1,37 L182.1,58 Z M204,37 L204,39.1 L208.2,39.1 L208.2,49.6 L204,49.6 L204,51.7 L193.5,51.7 L193.5,58 L185.1,58 L185.1,37 L204,37 Z M199.8,46.45 L199.8,42.25 L193.5,42.25 L193.5,46.45 L199.8,46.45 Z M211.2,37 L228,37 L228,43.3 L223.8,43.3 L223.8,58 L215.4,58 L215.4,43.3 L211.2,43.3 L211.2,37 Z M114.3,74 L114.3,76.1 L118.5,76.1 L118.5,92.9 L114.3,92.9 L114.3,95 L95.4,95 L95.4,74 L114.3,74 Z M110.1,88.7 L110.1,80.3 L103.8,80.3 L103.8,88.7 L110.1,88.7 Z M121.5,74 L140.4,74 L140.4,78.2 L132,78.2 L132,82.4 L136.2,82.4 L136.2,86.6 L132,86.6 L132,90.8 L140.4,90.8 L140.4,95 L121.5,95 L121.5,74 Z M166.5,80.3 L158.1,80.3 L158.1,78.2 L153.9,78.2 L153.9,82.4 L162.39,82.4 L162.39,84.62 L166.5,84.62 L166.5,92.9 L164.4,92.9 L164.4,95 L145.5,95 L145.5,92.9 L143.4,92.9 L143.4,88.7 L149.7,88.7 L149.7,90.8 L153.9,90.8 L153.9,86.6 L145.5,86.6 L145.5,84.5 L143.4,84.5 L143.4,76.1 L145.5,76.1 L145.5,74 L164.4,74 L164.4,76.1 L166.5,76.1 L166.5,80.3 Z M177.9,95 L169.5,95 L169.5,74 L177.9,74 L177.9,95 Z M199.8,74 L199.8,76.1 L204,76.1 L204,82.4 L196.44,82.4 L196.44,80.3 L190.14,80.3 L190.14,88.7 L196.44,88.7 L196.44,86.6 L194.34,86.6 L194.34,84.5 L204,84.5 L204,92.9 L199.8,92.9 L199.8,95 L185.1,95 L185.1,92.9 L180.9,92.9 L180.9,76.1 L185.1,76.1 L185.1,74 L199.8,74 Z M219.6,74 L228,74 L228,95 L219.6,95 L219.6,90.8 L217.5,90.8 L217.5,86.6 L215.4,86.6 L215.4,95 L207,95 L207,74 L215.4,74 L215.4,78.2 L217.5,78.2 L217.5,82.4 L219.6,82.4 L219.6,74 Z M84,111 L84,113.1 L88.2,113.1 L88.2,119.4 L80.64,119.4 L80.64,117.3 L74.34,117.3 L74.34,125.7 L80.64,125.7 L80.64,123.6 L78.54,123.6 L78.54,121.5 L88.2,121.5 L88.2,129.9 L84,129.9 L84,132 L69.3,132 L69.3,129.9 L65.1,129.9 L65.1,113.1 L69.3,113.1 L69.3,111 L84,111 Z M91.2,111 L110.1,111 L110.1,115.2 L101.7,115.2 L101.7,119.4 L105.9,119.4 L105.9,123.6 L101.7,123.6 L101.7,127.8 L110.1,127.8 L110.1,132 L91.2,132 L91.2,111 Z M125.7,111 L134.1,111 L134.1,132 L125.7,132 L125.7,127.8 L123.6,127.8 L123.6,123.6 L121.5,123.6 L121.5,132 L113.1,132 L113.1,111 L121.5,111 L121.5,115.2 L123.6,115.2 L123.6,119.4 L125.7,119.4 L125.7,111 Z M137.1,111 L156,111 L156,115.2 L147.6,115.2 L147.6,119.4 L151.8,119.4 L151.8,123.6 L147.6,123.6 L147.6,127.8 L156,127.8 L156,132 L137.1,132 L137.1,111 Z M182.1,121.83 L177.9,121.83 L177.9,125.7 L182.1,125.7 L182.1,132 L171.6,132 L171.6,125.7 L167.4,125.7 L167.4,132 L159,132 L159,111 L177.9,111 L177.9,113.1 L182.1,113.1 L182.1,121.83 Z M173.7,120.45 L173.7,116.25 L167.4,116.25 L167.4,120.45 L173.7,120.45 Z M204,111 L204,113.1 L208.2,113.1 L208.2,132 L199.8,132 L199.8,127.8 L193.5,127.8 L193.5,132 L185.1,132 L185.1,113.1 L189.3,113.1 L189.3,111 L204,111 Z M199.8,123.6 L199.8,117.21 L193.5,117.21 L193.5,123.6 L199.8,123.6 Z M219.6,111 L219.6,127.8 L228,127.8 L228,132 L211.2,132 L211.2,111 L219.6,111 Z M75.6,148 L75.6,150.1 L79.8,150.1 L79.8,166.9 L75.6,166.9 L75.6,169 L60.9,169 L60.9,166.9 L56.7,166.9 L56.7,150.1 L60.9,150.1 L60.9,148 L75.6,148 Z M71.4,162.7 L71.4,154.3 L65.1,154.3 L65.1,162.7 L71.4,162.7 Z M101.7,148 L101.7,150.1 L105.9,150.1 L105.9,160.6 L101.7,160.6 L101.7,162.7 L91.2,162.7 L91.2,169 L82.8,169 L82.8,148 L101.7,148 Z M97.5,157.45 L97.5,153.25 L91.2,153.25 L91.2,157.45 L97.5,157.45 Z M108.9,148 L127.8,148 L127.8,152.2 L119.4,152.2 L119.4,156.4 L123.6,156.4 L123.6,160.6 L119.4,160.6 L119.4,164.8 L127.8,164.8 L127.8,169 L108.9,169 L108.9,148 Z M143.4,148 L151.8,148 L151.8,169 L143.4,169 L143.4,164.8 L141.3,164.8 L141.3,160.6 L139.2,160.6 L139.2,169 L130.8,169 L130.8,148 L139.2,148 L139.2,152.2 L141.3,152.2 L141.3,156.4 L143.4,156.4 L143.4,148 Z M177.9,154.3 L169.5,154.3 L169.5,152.2 L165.3,152.2 L165.3,156.4 L173.79,156.4 L173.79,158.62 L177.9,158.62 L177.9,166.9 L175.8,166.9 L175.8,169 L156.9,169 L156.9,166.9 L154.8,166.9 L154.8,162.7 L161.1,162.7 L161.1,164.8 L165.3,164.8 L165.3,160.6 L156.9,160.6 L156.9,158.5 L154.8,158.5 L154.8,150.1 L156.9,150.1 L156.9,148 L175.8,148 L175.8,150.1 L177.9,150.1 L177.9,154.3 Z M204,158.83 L199.8,158.83 L199.8,162.7 L204,162.7 L204,169 L193.5,169 L193.5,162.7 L189.3,162.7 L189.3,169 L180.9,169 L180.9,148 L199.8,148 L199.8,150.1 L204,150.1 L204,158.83 Z M195.6,157.45 L195.6,153.25 L189.3,153.25 L189.3,157.45 L195.6,157.45 Z M228,154.3 L217.5,154.3 L217.5,162.7 L228,162.7 L228,169 L211.2,169 L211.2,166.9 L207,166.9 L207,150.1 L211.2,150.1 L211.2,148 L228,148 L228,154.3 Z M77.7,185 L77.7,187.1 L81.9,187.1 L81.9,206 L73.5,206 L73.5,201.8 L67.2,201.8 L67.2,206 L58.8,206 L58.8,187.1 L63,187.1 L63,185 L77.7,185 Z M73.5,197.6 L73.5,191.21 L67.2,191.21 L67.2,197.6 L73.5,197.6 Z M97.5,185 L105.9,185 L105.9,206 L97.5,206 L97.5,201.8 L95.4,201.8 L95.4,197.6 L93.3,197.6 L93.3,206 L84.9,206 L84.9,185 L93.3,185 L93.3,189.2 L95.4,189.2 L95.4,193.4 L97.5,193.4 L97.5,185 Z M127.8,185 L127.8,187.1 L132,187.1 L132,193.4 L124.44,193.4 L124.44,191.3 L118.14,191.3 L118.14,199.7 L124.44,199.7 L124.44,197.6 L122.34,197.6 L122.34,195.5 L132,195.5 L132,203.9 L127.8,203.9 L127.8,206 L113.1,206 L113.1,203.9 L108.9,203.9 L108.9,187.1 L113.1,187.1 L113.1,185 L127.8,185 Z M147.6,185 L156,185 L156,203.9 L151.8,203.9 L151.8,206 L139.2,206 L139.2,203.9 L135,203.9 L135,185 L143.4,185 L143.4,199.7 L147.6,199.7 L147.6,185 Z M167.4,185 L167.4,201.8 L175.8,201.8 L175.8,206 L159,206 L159,185 L167.4,185 Z M197.7,185 L197.7,187.1 L201.9,187.1 L201.9,206 L193.5,206 L193.5,201.8 L187.2,201.8 L187.2,206 L178.8,206 L178.8,187.1 L183,187.1 L183,185 L197.7,185 Z M193.5,197.6 L193.5,191.21 L187.2,191.21 L187.2,197.6 L193.5,197.6 Z M228,195.83 L223.8,195.83 L223.8,199.7 L228,199.7 L228,206 L217.5,206 L217.5,199.7 L213.3,199.7 L213.3,206 L204.9,206 L204.9,185 L223.8,185 L223.8,187.1 L228,187.1 L228,195.83 Z M219.6,194.45 L219.6,190.25 L213.3,190.25 L213.3,194.45 L219.6,194.45 Z M29.7,222 L29.7,224.1 L33.9,224.1 L33.9,230.4 L26.34,230.4 L26.34,228.3 L20.04,228.3 L20.04,236.7 L26.34,236.7 L26.34,234.6 L24.24,234.6 L24.24,232.5 L33.9,232.5 L33.9,240.9 L29.7,240.9 L29.7,243 L15,243 L15,240.9 L10.8,240.9 L10.8,224.1 L15,224.1 L15,222 L29.7,222 Z M36.9,222 L55.8,222 L55.8,226.2 L47.4,226.2 L47.4,230.4 L51.6,230.4 L51.6,234.6 L47.4,234.6 L47.4,238.8 L55.8,238.8 L55.8,243 L36.9,243 L36.9,222 Z M77.7,222 L77.7,224.1 L81.9,224.1 L81.9,240.9 L77.7,240.9 L77.7,243 L63,243 L63,240.9 L58.8,240.9 L58.8,224.1 L63,224.1 L63,222 L77.7,222 Z M73.5,236.7 L73.5,228.3 L67.2,228.3 L67.2,236.7 L73.5,236.7 Z M108,228.3 L99.6,228.3 L99.6,226.2 L95.4,226.2 L95.4,230.4 L103.89,230.4 L103.89,232.62 L108,232.62 L108,240.9 L105.9,240.9 L105.9,243 L87,243 L87,240.9 L84.9,240.9 L84.9,236.7 L91.2,236.7 L91.2,238.8 L95.4,238.8 L95.4,234.6 L87,234.6 L87,232.5 L84.9,232.5 L84.9,224.1 L87,224.1 L87,222 L105.9,222 L105.9,224.1 L108,224.1 L108,228.3 Z M129.9,222 L129.9,224.1 L134.1,224.1 L134.1,234.6 L129.9,234.6 L129.9,236.7 L119.4,236.7 L119.4,243 L111,243 L111,222 L129.9,222 Z M125.7,231.45 L125.7,227.25 L119.4,227.25 L119.4,231.45 L125.7,231.45 Z M149.7,222 L158.1,222 L158.1,243 L149.7,243 L149.7,234.6 L145.5,234.6 L145.5,243 L137.1,243 L137.1,222 L145.5,222 L145.5,230.4 L149.7,230.4 L149.7,222 Z M161.1,222 L180,222 L180,226.2 L171.6,226.2 L171.6,230.4 L175.8,230.4 L175.8,234.6 L171.6,234.6 L171.6,238.8 L180,238.8 L180,243 L161.1,243 L161.1,222 Z M206.1,232.83 L201.9,232.83 L201.9,236.7 L206.1,236.7 L206.1,243 L195.6,243 L195.6,236.7 L191.4,236.7 L191.4,243 L183,243 L183,222 L201.9,222 L201.9,224.1 L206.1,224.1 L206.1,232.83 Z M197.7,231.45 L197.7,227.25 L191.4,227.25 L191.4,231.45 L197.7,231.45 Z M209.1,222 L228,222 L228,226.2 L219.6,226.2 L219.6,230.4 L223.8,230.4 L223.8,234.6 L219.6,234.6 L219.6,238.8 L228,238.8 L228,243 L209.1,243 L209.1,222 Z" id="REACTJAVASCRIPTDESIGNGENERALOPENSRCANGULARGEOSPHERE"></path>
            <path d="M226.52,243.75 L226.52,245.25 L9.3,245.25 L9.3,243.75 L226.52,243.75 Z M229.52,206.75 L229.52,208.25 L57.3,208.25 L57.3,206.75 L229.52,206.75 Z M229.52,169.75 L229.52,171.25 L55.2,171.25 L55.2,169.75 L229.52,169.75 Z M229.52,132.75 L229.52,134.25 L63.6,134.25 L63.6,132.75 L229.52,132.75 Z M93.9,97.25 L93.9,95.75 L229.52,95.75 L229.52,97.25 L93.9,97.25 Z M0,60.25 L0,58.75 L229.52,58.75 L229.52,60.25 L0,60.25 Z M111.6,21.75 L229.52,21.75 L229.52,23.25 L111.6,23.25 L111.6,21.75 Z" id="Decoration"></path>
        </g>
    </g>
</svg>